<svg width="91" height="28" viewBox="0 0 91 28" fill="none" xmlns="http://www.w3.org/2000/svg">
<path fill-rule="evenodd" clip-rule="evenodd" d="M4.44444 15.1111C8.12634 15.1111 11.1111 12.1263 11.1111 8.44444C11.1111 6.74474 10.475 5.19361 9.42792 4.01609C9.61726 4.00541 9.808 4 10 4C15.5228 4 20 8.47715 20 14C20 19.5228 15.5228 24 10 24C4.47715 24 0 19.5228 0 14C0 13.808 0.00541164 13.6173 0.01609 13.4279C1.19361 14.475 2.74474 15.1111 4.44444 15.1111Z" fill="#F01F4B"/>
<circle cx="4.44444" cy="8.44444" r="4.44444" fill="#FFBB38"/>
<path d="M28.7421 22V5.72H32.1301V12.606L37.9601 5.72H42.1401L35.3421 13.53L42.3821 22H38.0481L32.1301 14.762V22H28.7421ZM49.1113 22.22C48.0847 22.22 47.1973 22.0513 46.4493 21.714C45.7013 21.362 45.0853 20.9 44.6013 20.328C44.1173 19.7413 43.7507 19.0887 43.5013 18.37C43.2667 17.6513 43.1493 16.9107 43.1493 16.148C43.1493 15.4147 43.2593 14.696 43.4793 13.992C43.714 13.2733 44.066 12.6207 44.5353 12.034C45.0193 11.4473 45.628 10.9853 46.3613 10.648C47.1093 10.296 47.9893 10.12 49.0013 10.12C50.072 10.12 51.018 10.3547 51.8393 10.824C52.6753 11.2933 53.328 11.99 53.7973 12.914C54.2667 13.8233 54.5013 14.9307 54.5013 16.236V17.05H46.5153C46.5593 17.754 46.8013 18.3627 47.2413 18.876C47.696 19.3893 48.3193 19.646 49.1113 19.646C49.566 19.646 49.9327 19.58 50.2113 19.448C50.5047 19.3013 50.732 19.14 50.8933 18.964C51.0547 18.7733 51.1647 18.6047 51.2233 18.458C51.282 18.3113 51.3113 18.238 51.3113 18.238H54.3913C54.3913 18.238 54.3547 18.3773 54.2813 18.656C54.2227 18.92 54.0907 19.25 53.8853 19.646C53.68 20.042 53.3793 20.438 52.9833 20.834C52.602 21.23 52.096 21.56 51.4653 21.824C50.8347 22.088 50.05 22.22 49.1113 22.22ZM46.5153 15.026H51.2893C51.2453 14.2193 51.0033 13.618 50.5633 13.222C50.1233 12.826 49.5807 12.628 48.9353 12.628C48.29 12.628 47.74 12.8407 47.2853 13.266C46.8307 13.6767 46.574 14.2633 46.5153 15.026ZM58.8211 8.756C58.2491 8.756 57.7724 8.57267 57.3911 8.206C57.0244 7.82467 56.8411 7.37733 56.8411 6.864C56.8411 6.32133 57.0244 5.86667 57.3911 5.5C57.7724 5.11867 58.2491 4.928 58.8211 4.928C59.3931 4.928 59.8624 5.11867 60.2291 5.5C60.6104 5.86667 60.8011 6.32133 60.8011 6.864C60.8011 7.37733 60.6104 7.82467 60.2291 8.206C59.8624 8.57267 59.3931 8.756 58.8211 8.756ZM56.1371 26.51C55.6677 26.51 55.2864 26.4807 54.9931 26.422C54.6851 26.378 54.5311 26.356 54.5311 26.356V23.804C54.5311 23.804 54.6117 23.8113 54.7731 23.826C54.9344 23.8553 55.1104 23.87 55.3011 23.87C56.0344 23.87 56.5257 23.7087 56.7751 23.386C57.0244 23.0633 57.1491 22.5867 57.1491 21.956V10.34H60.4931V22.044C60.4931 22.4693 60.4417 22.9387 60.3391 23.452C60.2364 23.9653 60.0384 24.4567 59.7451 24.926C59.4517 25.3953 59.0117 25.7767 58.4251 26.07C57.8531 26.3633 57.0904 26.51 56.1371 26.51ZM69.1384 22.22C67.8331 22.22 66.7257 21.9413 65.8164 21.384C64.9071 20.812 64.2104 20.0713 63.7264 19.162C63.2571 18.238 63.0224 17.2407 63.0224 16.17C63.0224 15.0993 63.2571 14.1093 63.7264 13.2C64.2104 12.276 64.9071 11.5353 65.8164 10.978C66.7257 10.406 67.8331 10.12 69.1384 10.12C70.4437 10.12 71.5511 10.406 72.4604 10.978C73.3697 11.5353 74.0591 12.276 74.5284 13.2C75.0124 14.1093 75.2544 15.0993 75.2544 16.17C75.2544 17.2407 75.0124 18.238 74.5284 19.162C74.0591 20.0713 73.3697 20.812 72.4604 21.384C71.5511 21.9413 70.4437 22.22 69.1384 22.22ZM69.1384 19.492C69.7251 19.492 70.2164 19.338 70.6124 19.03C71.0231 18.722 71.3384 18.3187 71.5584 17.82C71.7784 17.3067 71.8884 16.7567 71.8884 16.17C71.8884 15.5687 71.7784 15.0187 71.5584 14.52C71.3384 14.0213 71.0231 13.618 70.6124 13.31C70.2164 13.002 69.7251 12.848 69.1384 12.848C68.5517 12.848 68.0531 13.002 67.6424 13.31C67.2317 13.618 66.9164 14.0213 66.6964 14.52C66.4911 15.0187 66.3884 15.5687 66.3884 16.17C66.3884 16.7567 66.4911 17.3067 66.6964 17.82C66.9164 18.3187 67.2317 18.722 67.6424 19.03C68.0531 19.338 68.5517 19.492 69.1384 19.492ZM83.5114 22.22C82.2061 22.22 81.0988 21.9413 80.1894 21.384C79.2801 20.812 78.5834 20.0713 78.0994 19.162C77.6301 18.238 77.3954 17.2407 77.3954 16.17C77.3954 15.0993 77.6301 14.1093 78.0994 13.2C78.5834 12.276 79.2801 11.5353 80.1894 10.978C81.0988 10.406 82.2061 10.12 83.5114 10.12C84.8168 10.12 85.9241 10.406 86.8334 10.978C87.7428 11.5353 88.4321 12.276 88.9014 13.2C89.3854 14.1093 89.6274 15.0993 89.6274 16.17C89.6274 17.2407 89.3854 18.238 88.9014 19.162C88.4321 20.0713 87.7428 20.812 86.8334 21.384C85.9241 21.9413 84.8168 22.22 83.5114 22.22ZM83.5114 19.492C84.0981 19.492 84.5894 19.338 84.9854 19.03C85.3961 18.722 85.7114 18.3187 85.9314 17.82C86.1514 17.3067 86.2614 16.7567 86.2614 16.17C86.2614 15.5687 86.1514 15.0187 85.9314 14.52C85.7114 14.0213 85.3961 13.618 84.9854 13.31C84.5894 13.002 84.0981 12.848 83.5114 12.848C82.9248 12.848 82.4261 13.002 82.0154 13.31C81.6048 13.618 81.2894 14.0213 81.0694 14.52C80.8641 15.0187 80.7614 15.5687 80.7614 16.17C80.7614 16.7567 80.8641 17.3067 81.0694 17.82C81.2894 18.3187 81.6048 18.722 82.0154 19.03C82.4261 19.338 82.9248 19.492 83.5114 19.492Z" fill="#18181B"/>
</svg>
