<svg width="110" height="40" viewBox="0 0 110 40" fill="none" xmlns="http://www.w3.org/2000/svg">
<path fill-rule="evenodd" clip-rule="evenodd" d="M5.39944 20.4634C9.8725 20.4634 13.4986 16.8466 13.4986 12.385C13.4986 10.3256 12.7261 8.44626 11.4543 7.01947C11.6842 7.00655 11.9157 7 12.1488 7C18.8584 7 24.2976 12.4252 24.2976 19.1176C24.2976 25.81 18.8584 31.2352 12.1488 31.2352C5.43921 31.2352 0 25.81 0 19.1176C0 18.8848 0.00658495 18.6534 0.0195792 18.4238C1.45011 19.6926 3.33453 20.4634 5.39944 20.4634Z" fill="#F01F4B"/>
<ellipse cx="5.39947" cy="12.3856" rx="5.39947" ry="5.38561" fill="#FFBB38"/>
<path d="M34.7355 27V7.27253H38.841V15.6167L45.9055 7.27253H50.9707L42.7331 16.7364L51.2639 27H46.0122L38.841 18.2293V27H34.7355ZM59.4182 27.2666C58.1741 27.2666 57.0989 27.0622 56.1925 26.6534C55.2861 26.2269 54.5396 25.6671 53.9531 24.9739C53.3666 24.263 52.9223 23.4722 52.6202 22.6013C52.3358 21.7305 52.1937 20.8329 52.1937 19.9088C52.1937 19.0201 52.327 18.1493 52.5935 17.2962C52.8779 16.4254 53.3044 15.6345 53.8732 14.9236C54.4597 14.2127 55.1972 13.6529 56.0858 13.2441C56.9922 12.8175 58.0586 12.6043 59.2849 12.6043C60.5823 12.6043 61.7286 12.8886 62.7239 13.4574C63.7369 14.0261 64.5278 14.8703 65.0965 15.9899C65.6652 17.0918 65.9496 18.4337 65.9496 20.0154V21.0018H56.2724C56.3258 21.8549 56.619 22.5924 57.1522 23.2145C57.7031 23.8365 58.4585 24.1475 59.4182 24.1475C59.9691 24.1475 60.4134 24.0675 60.7511 23.9076C61.1066 23.7299 61.382 23.5344 61.5775 23.3211C61.773 23.0901 61.9063 22.8857 61.9774 22.7079C62.0485 22.5302 62.0841 22.4414 62.0841 22.4414H65.8163C65.8163 22.4414 65.7718 22.6102 65.683 22.9479C65.6119 23.2678 65.4519 23.6677 65.2031 24.1475C64.9543 24.6274 64.59 25.1072 64.1101 25.5871C63.648 26.0669 63.0349 26.4668 62.2707 26.7867C61.5064 27.1066 60.5556 27.2666 59.4182 27.2666ZM56.2724 18.5492H62.0574C62.0041 17.5717 61.7108 16.843 61.1777 16.3632C60.6445 15.8833 59.9869 15.6434 59.2049 15.6434C58.4229 15.6434 57.7565 15.9011 57.2055 16.4165C56.6546 16.9141 56.3435 17.625 56.2724 18.5492ZM71.1841 10.9514C70.4909 10.9514 69.9133 10.7293 69.4512 10.285C69.0069 9.82288 68.7848 9.28082 68.7848 8.65878C68.7848 8.0012 69.0069 7.45025 69.4512 7.00594C69.9133 6.54385 70.4909 6.31281 71.1841 6.31281C71.8772 6.31281 72.4459 6.54385 72.8902 7.00594C73.3523 7.45025 73.5833 8.0012 73.5833 8.65878C73.5833 9.28082 73.3523 9.82288 72.8902 10.285C72.4459 10.7293 71.8772 10.9514 71.1841 10.9514ZM67.9317 32.465C67.363 32.465 66.9009 32.4295 66.5454 32.3584C66.1722 32.3051 65.9856 32.2784 65.9856 32.2784V29.186C65.9856 29.186 66.0834 29.1949 66.2788 29.2127C66.4743 29.2482 66.6876 29.266 66.9187 29.266C67.8073 29.266 68.4027 29.0705 68.7048 28.6795C69.0069 28.2885 69.158 27.7109 69.158 26.9467V12.8709H73.2101V27.0533C73.2101 27.5687 73.1479 28.1374 73.0235 28.7595C72.8991 29.3815 72.6592 29.9769 72.3037 30.5456C71.9483 31.1143 71.4151 31.5764 70.7042 31.9319C70.0111 32.2873 69.0869 32.465 67.9317 32.465ZM83.6862 27.2666C82.1044 27.2666 80.7626 26.9289 79.6607 26.2536C78.5588 25.5604 77.7146 24.6629 77.1281 23.561C76.5594 22.4414 76.275 21.2328 76.275 19.9354C76.275 18.638 76.5594 17.4384 77.1281 16.3365C77.7146 15.2168 78.5588 14.3193 79.6607 13.644C80.7626 12.9508 82.1044 12.6043 83.6862 12.6043C85.2679 12.6043 86.6098 12.9508 87.7116 13.644C88.8135 14.3193 89.6489 15.2168 90.2176 16.3365C90.8041 17.4384 91.0973 18.638 91.0973 19.9354C91.0973 21.2328 90.8041 22.4414 90.2176 23.561C89.6489 24.6629 88.8135 25.5604 87.7116 26.2536C86.6098 26.9289 85.2679 27.2666 83.6862 27.2666ZM83.6862 23.9609C84.3971 23.9609 84.9925 23.7743 85.4723 23.4011C85.9699 23.0278 86.3521 22.5391 86.6186 21.9348C86.8852 21.3128 87.0185 20.6463 87.0185 19.9354C87.0185 19.2068 86.8852 18.5403 86.6186 17.936C86.3521 17.3318 85.9699 16.843 85.4723 16.4698C84.9925 16.0966 84.3971 15.91 83.6862 15.91C82.9753 15.91 82.371 16.0966 81.8734 16.4698C81.3758 16.843 80.9936 17.3318 80.7271 17.936C80.4782 18.5403 80.3538 19.2068 80.3538 19.9354C80.3538 20.6463 80.4782 21.3128 80.7271 21.9348C80.9936 22.5391 81.3758 23.0278 81.8734 23.4011C82.371 23.7743 82.9753 23.9609 83.6862 23.9609ZM101.103 27.2666C99.5211 27.2666 98.1793 26.9289 97.0774 26.2536C95.9755 25.5604 95.1313 24.6629 94.5448 23.561C93.9761 22.4414 93.6917 21.2328 93.6917 19.9354C93.6917 18.638 93.9761 17.4384 94.5448 16.3365C95.1313 15.2168 95.9755 14.3193 97.0774 13.644C98.1793 12.9508 99.5211 12.6043 101.103 12.6043C102.685 12.6043 104.026 12.9508 105.128 13.644C106.23 14.3193 107.066 15.2168 107.634 16.3365C108.221 17.4384 108.514 18.638 108.514 19.9354C108.514 21.2328 108.221 22.4414 107.634 23.561C107.066 24.6629 106.23 25.5604 105.128 26.2536C104.026 26.9289 102.685 27.2666 101.103 27.2666ZM101.103 23.9609C101.814 23.9609 102.409 23.7743 102.889 23.4011C103.387 23.0278 103.769 22.5391 104.035 21.9348C104.302 21.3128 104.435 20.6463 104.435 19.9354C104.435 19.2068 104.302 18.5403 104.035 17.936C103.769 17.3318 103.387 16.843 102.889 16.4698C102.409 16.0966 101.814 15.91 101.103 15.91C100.392 15.91 99.7877 16.0966 99.2901 16.4698C98.7925 16.843 98.4103 17.3318 98.1438 17.936C97.8949 18.5403 97.7705 19.2068 97.7705 19.9354C97.7705 20.6463 97.8949 21.3128 98.1438 21.9348C98.4103 22.5391 98.7925 23.0278 99.2901 23.4011C99.7877 23.7743 100.392 23.9609 101.103 23.9609Z" fill="white"/>
</svg>
